# xmcd
#
# Track frame offsets:
#	150
#	16308
#	32799
#	47937
#	79894
#	91924
#	110413
#	130234
#	147700
#	163111
#	180823
#	192338
#	204932
#	229690
#	260731
#	273187
#	291145
#	304929
#	320107
#	334018
#	346578
#
# Disc length: 4792 seconds
#
# Revision: 1
# Processed by: cddbd v1.5.2PL0 Copyright (c) Steve Scherf et al.
# Submitted via: audiograbber 1.83.01
#
DISCID=3112b615
DTITLE=Dylan, Bob - Greatest Hits Vol. II
DYEAR=1900
DGENRE=Blues
TTITLE0=Watching the river flow
TTITLE1=Sont´t think twice, i´ts allright
TTITLE2=Lay lady lay
TTITLE3=Stuck inside of Mobile with the memphis blues again
TTITLE4=I´ll be your baby tonight
TTITLE5=All I really want to do
TTITLE6=My back pages
TTITLE7=Maggie´s farm
TTITLE8=Tonight I´ll be staying with you
TTITLE9=Positively 4th street
TTITLE10=All along the watchtower
TTITLE11=The mighty Quinn
TTITLE12=Just like Tom´s thumb blues
TTITLE13=A hard rains gonna fall
TTITLE14=If not for you
TTITLE15=New morning
TTITLE16=Tomorrow is a long time
TTITLE17=When I paint my masterpiece
TTITLE18=I shall be released
TTITLE19=You ain´t going nowhere
TTITLE20=Down in the flood
EXTD=
EXTT0=
EXTT1=
EXTT2=
EXTT3=
EXTT4=
EXTT5=
EXTT6=
EXTT7=
EXTT8=
EXTT9=
EXTT10=
EXTT11=
EXTT12=
EXTT13=
EXTT14=
EXTT15=
EXTT16=
EXTT17=
EXTT18=
EXTT19=
EXTT20=
PLAYORDER=
